<?xml version="1.0"?>
<svg width="584" height="414" xmlns="http://www.w3.org/2000/svg">

 <g>
  <title>background</title>
  <rect fill="none" id="canvas_background" height="416" width="586" y="-1" x="-1"/>
 </g>
 <g>
  <title>Layer 1</title>
  <g id="svg_6">
   <path id="svg_1" d="m48.931923,32.746613c-0.30489,-0.76783 -0.519444,-1.250645 -0.755432,-1.617466c0.472786,-0.50597 0.883907,-1.075886 1.21957,-1.69553c0.674545,-1.245564 1.031174,-2.671074 1.031174,-4.122494c0,-1.451305 -0.356628,-2.876808 -1.031174,-4.122377c-0.661179,-1.220758 -1.614914,-2.249123 -2.758434,-2.97406c-1.335945,-0.844122 -2.83057,-1.220533 -4.845669,-1.220533l0.000114,0.003086l-2.14473,0l0,20.93021l2.23645,0l0,-4.299557c1.81242,-0.010586 3.201832,-0.331543 4.437653,-1.031231c0.12352,0.217205 0.254074,0.506294 0.418968,0.92152l1.750877,4.409267l2.497913,0l-2.057281,-5.180836zm-7.04813,-13.438402c1.556038,0.000551 2.624538,0.252378 3.571484,0.841589c1.712856,1.091759 2.7355,3.021025 2.7355,5.161324s-1.022522,4.069458 -2.73539,5.161221c-0.946938,0.589325 -2.015438,0.841152 -3.571594,0.841816l0,-12.005949l0,0z"/>
   <g id="svg_2">
    <polygon id="svg_3" points="36.883 26.0838 36.883 16.9929 36.8813 16.9929 36.8813 5 34.6448 5 34.6448 26.0838"/>
    <path id="svg_4" d="m34.646576,28.315506l0,7.37352c-2.047478,-0.075855 -3.877068,-1.080292 -4.930023,-2.720249c-0.592152,-0.944565 -0.844849,-2.010529 -0.844849,-3.563938l0,-1.089333l-2.322639,0l0,1.003448c0,2.007885 0.377831,3.49678 1.225101,4.827908c0.727543,1.139286 1.759758,2.089478 2.985088,2.74826c1.178322,0.63353 2.51738,0.985477 3.887321,1.023727l0,0.004417l2.236458,0l0,-9.607761l-2.236458,0z"/>
    <path id="svg_5" d="m26.548027,13.544661l0,12.412682l0.001038,0l0,0.126463l2.322639,0l0,-9.091642l-0.000916,0l0,-3.361614c0,-2.007772 -0.377831,-3.496782 -1.225334,-4.828242c-0.727432,-1.13895 -1.759523,-2.08903 -2.984852,-2.747813c-1.250109,-0.672123 -2.680891,-1.027478 -4.137712,-1.027478s-2.887489,0.355355 -4.137598,1.027478c-1.225327,0.658673 -2.25742,1.608863 -2.985081,2.748254c-0.847269,1.331019 -1.225103,2.820029 -1.225103,4.827802l0,10.151983c-1.666653,-0.299131 -3.11564,-1.232445 -4.007499,-2.62146c-0.592155,-0.944677 -0.844851,-2.010635 -0.844851,-3.564152l0,-12.412571l-2.322759,0l0,12.326677c0,2.007887 0.377831,3.49679 1.22533,4.828354c0.727429,1.13884 1.759641,2.089033 2.984856,2.747818c1.250107,0.672117 2.680887,1.027365 4.137709,1.027365c1.456707,0 2.887489,-0.355247 4.137596,-1.027365c1.225328,-0.658785 2.257421,-1.608978 2.985085,-2.748255c0.847271,-1.33102 1.225101,-2.82003 1.225101,-4.827803l0,-10.152092c1.666651,0.299234 3.115635,1.232447 4.007505,2.621569c0.592266,0.944569 0.844845,2.010529 0.844845,3.564043zm-7.174994,4.052372c0,1.553295 -0.252695,2.619253 -0.844854,3.563931c-0.896008,1.395298 -2.354092,2.330601 -4.030428,2.625425l0,-10.241728c0,-1.553404 0.252695,-2.619364 0.844849,-3.563932c0.895901,-1.395406 2.354103,-2.330602 4.030434,-2.625428l0,10.241733z"/>
   </g>
  </g>
 </g>
</svg>