<?xml version="1.0" encoding="utf-8"?>
<!-- Generator: Adobe Illustrator 15.0.2, SVG Export Plug-In . SVG Version: 6.00 Build 0)  -->
<!DOCTYPE svg PUBLIC "-//W3C//DTD SVG 1.1//EN" "http://www.w3.org/Graphics/SVG/1.1/DTD/svg11.dtd">
<svg version="1.1" id="Calque_1" xmlns="http://www.w3.org/2000/svg" xmlns:xlink="http://www.w3.org/1999/xlink" x="0px" y="0px"
	 width="1896px" height="1425.051px" viewBox="0 0 1896 1425.051" enable-background="new 0 0 1896 1425.051" xml:space="preserve">
<path d="M1729.254,1137.174c-11.22-28.354-19.114-46.182-27.797-59.729c17.397-18.686,32.523-39.73,44.871-62.613
	c24.821-45.995,37.94-98.638,37.94-152.235c0-53.597-13.119-106.238-37.94-152.233c-24.326-45.081-59.417-83.057-101.487-109.828
	c-49.155-31.173-104.142-45.074-178.285-45.074l0.004,0.114h-78.909v772.919h82.285v-158.778
	c66.685-0.387,117.802-12.241,163.272-38.08c4.546,8.021,9.346,18.697,15.412,34.031l64.421,162.828h91.904L1729.254,1137.174z
	 M1469.936,640.917c57.25,0.021,96.562,9.32,131.402,31.08c63.021,40.314,100.646,111.562,100.646,190.598
	s-37.619,150.279-100.64,190.594c-34.842,21.764-74.155,31.062-131.409,31.086L1469.936,640.917L1469.936,640.917z"/>
<g>
	<polygon points="1285.948,891.129 1285.948,555.42 1285.882,555.42 1285.882,112.54 1203.597,112.54 1203.597,891.129 	"/>
	<path d="M1203.663,973.542v272.293c-75.333-2.804-142.646-39.895-181.388-100.455c-21.786-34.883-31.081-74.246-31.081-131.609
		v-40.229h-85.458v37.056c0,74.146,13.901,129.13,45.074,178.285c26.771,42.071,64.747,77.161,109.828,101.488
		c43.356,23.397,92.621,36.392,143.023,37.806v0.162h82.285V973.542H1203.663z"/>
	<path d="M905.701,428.08L905.7,886.458h0.036v4.671h85.458V555.392h-0.035V431.253c0-74.145-13.9-129.13-45.083-178.3
		c-26.764-42.058-64.738-77.146-109.818-101.474c-45.995-24.82-98.639-37.94-152.235-37.94s-106.239,13.12-152.233,37.94
		c-45.081,24.327-83.057,59.416-109.828,101.488c-31.173,49.155-45.074,104.142-45.074,178.285l-0.001,374.896
		c-61.321-11.049-114.63-45.512-147.444-96.809c-21.789-34.883-31.086-74.248-31.086-131.616V119.346h-85.458v455.206
		c0,74.146,13.901,129.13,45.083,178.3c26.765,42.058,64.739,77.146,109.819,101.474c45.995,24.82,98.638,37.939,152.234,37.939
		c53.598,0,106.239-13.119,152.234-37.939c45.081-24.326,83.056-59.416,109.828-101.488c31.173-49.154,45.074-104.14,45.074-178.285
		V199.656c61.32,11.048,114.631,45.511,147.444,96.808C896.405,331.347,905.701,370.712,905.701,428.08z M641.713,577.725
		c0,57.364-9.295,96.728-31.081,131.61c-32.966,51.529-86.615,86.066-148.289,96.953l0.001-378.208
		c0-57.364,9.295-96.729,31.081-131.609c32.965-51.53,86.614-86.067,148.288-96.954V577.725z"/>
</g>
</svg>
