<?xml version="1.0" encoding="UTF-8" standalone="no"?>
<!-- Generator: Adobe Illustrator 15.0.2, SVG Export Plug-In . SVG Version: 6.00 Build 0)  -->

<svg
   xmlns:dc="http://purl.org/dc/elements/1.1/"
   xmlns:cc="http://creativecommons.org/ns#"
   xmlns:rdf="http://www.w3.org/1999/02/22-rdf-syntax-ns#"
   xmlns:svg="http://www.w3.org/2000/svg"
   xmlns="http://www.w3.org/2000/svg"
   xmlns:sodipodi="http://sodipodi.sourceforge.net/DTD/sodipodi-0.dtd"
   xmlns:inkscape="http://www.inkscape.org/namespaces/inkscape"
   version="1.1"
   id="Calque_1"
   x="0px"
   y="0px"
   width="51.700001"
   height="39.966965"
   viewBox="0 0 51.700001 39.966964"
   enable-background="new 0 0 1896 1425.051"
   xml:space="preserve"
   inkscape:version="0.91 r13725"
   sodipodi:docname="wef.svg"><metadata
     id="metadata3423"><rdf:RDF><cc:Work
         rdf:about=""><dc:format>image/svg+xml</dc:format><dc:type
           rdf:resource="http://purl.org/dc/dcmitype/StillImage" /><dc:title></dc:title></cc:Work></rdf:RDF></metadata><defs
     id="defs3421" /><sodipodi:namedview
     pagecolor="#ffffff"
     bordercolor="#666666"
     borderopacity="1"
     objecttolerance="10"
     gridtolerance="10"
     guidetolerance="10"
     inkscape:pageopacity="0"
     inkscape:pageshadow="2"
     inkscape:window-width="1680"
     inkscape:window-height="1001"
     id="namedview3419"
     showgrid="false"
     inkscape:zoom="12.702656"
     inkscape:cx="27.892015"
     inkscape:cy="19.288155"
     inkscape:window-x="0"
     inkscape:window-y="0"
     inkscape:window-maximized="1"
     inkscape:current-layer="g3425"
     fit-margin-top="5"
     fit-margin-left="5"
     fit-margin-right="5"
     fit-margin-bottom="5" /><g
     id="g3425"
     transform="translate(-933.07195,-700.53452)"><g
       id="g3445"
       transform="matrix(0.78352707,0,0,0.78352707,207.58065,155.97264)"
       style="fill:#ffffff"><g
         id="g3411"
         style="fill:#ffffff"><g
           id="g3433"
           style="fill:#ffffff"><g
             transform="matrix(0.03145364,0,0,0.03145364,928.76042,697.85509)"
             id="g3439"
             style="fill:#ffffff"><path
               inkscape:connector-curvature="0"
               d="m 1729.254,1137.174 c -11.22,-28.354 -19.114,-46.182 -27.797,-59.729 17.397,-18.686 32.523,-39.73 44.871,-62.613 24.821,-45.995 37.94,-98.638 37.94,-152.235 0,-53.597 -13.119,-106.238 -37.94,-152.233 -24.326,-45.081 -59.417,-83.057 -101.487,-109.828 -49.155,-31.173 -104.142,-45.074 -178.285,-45.074 l 0,0.114 -78.909,0 0,772.919 82.285,0 0,-158.778 c 66.685,-0.387 117.802,-12.241 163.272,-38.08 4.546,8.021 9.346,18.697 15.412,34.031 l 64.421,162.828 91.904,0 -75.691,-191.322 z M 1469.936,640.917 c 57.25,0.021 96.562,9.32 131.402,31.08 63.021,40.314 100.646,111.562 100.646,190.598 0,79.036 -37.619,150.279 -100.64,190.594 -34.842,21.764 -74.155,31.062 -131.409,31.086 l 10e-4,-443.358 0,0 z"
               id="path3409"
               style="fill:#ffffff" /><polygon
               points="1203.597,891.129 1285.948,891.129 1285.948,555.42 1285.882,555.42 1285.882,112.54 1203.597,112.54 "
               id="polygon3413"
               style="fill:#ffffff" /><path
               inkscape:connector-curvature="0"
               d="m 1203.663,973.542 0,272.293 c -75.333,-2.804 -142.646,-39.895 -181.388,-100.455 -21.786,-34.883 -31.081,-74.246 -31.081,-131.609 l 0,-40.229 -85.458,0 0,37.056 c 0,74.146 13.901,129.13 45.074,178.285 26.771,42.071 64.747,77.161 109.828,101.488 43.356,23.397 92.621,36.392 143.023,37.806 l 0,0.162 82.285,0 0,-354.797 -82.283,0 z"
               id="path3415"
               style="fill:#ffffff" /><path
               inkscape:connector-curvature="0"
               d="m 905.701,428.08 -10e-4,458.378 0.036,0 0,4.671 85.458,0 0,-335.737 -0.035,0 0,-124.139 c 0,-74.145 -13.9,-129.13 -45.083,-178.3 -26.764,-42.058 -64.738,-77.146 -109.818,-101.474 -45.995,-24.82 -98.639,-37.94 -152.235,-37.94 -53.596,0 -106.239,13.12 -152.233,37.94 -45.081,24.327 -83.057,59.416 -109.828,101.488 -31.173,49.155 -45.074,104.142 -45.074,178.285 l -10e-4,374.896 C 315.566,795.099 262.257,760.636 229.443,709.339 207.654,674.456 198.357,635.091 198.357,577.723 l 0,-458.377 -85.458,0 0,455.206 c 0,74.146 13.901,129.13 45.083,178.3 26.765,42.058 64.739,77.146 109.819,101.474 45.995,24.82 98.638,37.939 152.234,37.939 53.598,0 106.239,-13.119 152.234,-37.939 C 617.35,830 655.325,794.91 682.097,752.838 713.27,703.684 727.171,648.698 727.171,574.553 l 0,-374.897 c 61.32,11.048 114.631,45.511 147.444,96.808 21.79,34.883 31.086,74.248 31.086,131.616 z M 641.713,577.725 c 0,57.364 -9.295,96.728 -31.081,131.61 -32.966,51.529 -86.615,86.066 -148.289,96.953 l 10e-4,-378.208 c 0,-57.364 9.295,-96.729 31.081,-131.609 32.965,-51.53 86.614,-86.067 148.288,-96.954 l 0,378.208 z"
               id="path3417"
               style="fill:#ffffff" /></g></g></g></g></g></svg>