<?xml version="1.0"?>
<svg width="153" height="38" xmlns="http://www.w3.org/2000/svg">

 <g>
  <title>background</title>
  <rect fill="none" id="canvas_background" height="40" width="155" y="-1" x="-1"/>
 </g>
 <g>
  <title>Layer 1</title>
  <g stroke="null" id="svg_6">
   <text font-weight="bold" stroke="null" xml:space="preserve" text-anchor="left" font-family="'Trebuchet MS', Gadget, sans-serif" font-size="24" id="svg_23" y="27.624455" x="66.314115" stroke-width="0" fill="white">UniVR</text>
   <g stroke="null" id="svg_25">
    <path stroke="#000000" fill="#ffffff" id="svg_13" d="m49.833424,31.845819c-0.345917,-0.874174 -0.589291,-1.423811 -0.856995,-1.841494c0.536362,-0.576105 1.002705,-1.224903 1.383411,-1.930405c0.765247,-1.418056 1.169727,-3.041084 1.169727,-4.69352c0,-1.652439 -0.40448,-3.275389 -1.169727,-4.693459c-0.750004,-1.389883 -1.831867,-2.560707 -3.128929,-3.386079c-1.515484,-0.961073 -3.210777,-1.389667 -5.496662,-1.389667l0.000126,0.003518l-2.432816,0l0,23.829669l2.536892,0l0,-4.895248c2.055965,-0.01194 3.631924,-0.377396 5.033802,-1.174026c0.140163,0.247288 0.288155,0.576435 0.475166,1.04921l1.986149,5.020096l2.833477,0l-2.333622,-5.898596zm-7.994972,-15.299974c1.765079,0.000645 2.977097,0.28734 4.051231,0.95821c1.942997,1.24291 3.102985,3.439548 3.102985,5.87628s-1.159821,4.633226 -3.10281,5.876173c-1.074188,0.670992 -2.286228,0.957651 -4.051422,0.958397l0.000015,-13.66906l0,0z"/>
    <g stroke="null" fill="white" id="svg_17">
     <polygon stroke="#000000" fill="#ffffff" id="svg_14" points="36.165977478027344,24.260072827339172 36.165977478027344,13.909900784492493 36.16393280029297,13.909900784492493 36.16393280029297,0.255584716796875 33.62702941894531,0.255584716796875 33.62702941894531,24.260072827339172 "/>
     <path stroke="#000000" fill="#ffffff" id="svg_15" d="m33.629059,26.800932l0,8.394976c-2.322569,-0.086433 -4.397869,-1.229996 -5.592323,-3.097099c-0.671665,-1.075466 -0.958237,-2.289053 -0.958237,-4.057596l0,-1.24028l-2.634733,0l0,1.14246c0,2.285963 0.428572,3.981159 1.389658,5.496649c0.825371,1.297081 1.996195,2.378937 3.386082,3.12896c1.336704,0.721333 2.855576,1.121979 4.4095,1.165581l0,0.004997l2.536915,0l0,-10.938646l-2.536861,0z"/>
     <path stroke="#000000" fill="#ffffff" id="svg_16" d="m24.442688,9.983907l-0.000032,14.13215l0.00111,0l0,0.144016l2.634733,0l0,-10.351031l-0.001078,0l0,-3.827295c0,-2.285946 -0.428555,-3.981175 -1.38995,-5.497126c-0.825148,-1.29668 -1.995924,-2.378469 -3.385769,-3.128519c-1.418056,-0.765209 -3.041111,-1.169707 -4.693512,-1.169707s-3.275433,0.404498 -4.693468,1.169707c-1.389885,0.750023 -2.560715,1.831839 -3.38608,3.128944c-0.961084,1.515496 -1.389666,3.210783 -1.389666,5.496671l-0.000036,11.558327c-1.890563,-0.340654 -3.534128,-1.40317 -4.545804,-2.984701c-0.67177,-1.075462 -0.958404,-2.289114 -0.958404,-4.05783l0,-14.132104l-2.634733,0l0,14.03435c0,2.285992 0.428579,3.981174 1.389946,5.497124c0.825183,1.296682 1.995949,2.378469 3.385796,3.128519c1.418071,0.765223 3.041094,1.169689 4.693489,1.169689c1.652471,0 3.275434,-0.404467 4.693491,-1.169689c1.389885,-0.749983 2.56068,-1.831837 3.38608,-3.128954c0.961088,-1.515457 1.389658,-3.210697 1.389658,-5.496652l0,-11.558353c1.890556,0.340618 3.53417,1.403132 4.545818,2.984654c0.671808,1.075472 0.95841,2.289134 0.95841,4.057811zm-8.13896,4.61368c0,1.768575 -0.286568,2.982198 -0.958243,4.05763c-1.016377,1.588694 -2.670414,2.653486 -4.571872,2.989151l0.000038,-11.66046c0,-1.768574 0.286572,-2.982206 0.958257,-4.057593c1.016339,-1.588699 2.670367,-2.653513 4.57182,-2.989156l0,11.660429z"/>
    </g>
   </g>
  </g>
 </g>
</svg>