<?xml version="1.0"?>
<svg width="153" height="38" xmlns="http://www.w3.org/2000/svg">

 <g>
  <title>background</title>
  <rect fill="none" id="canvas_background" height="40" width="155" y="-1" x="-1"/>
 </g>
 <g>
  <title>Layer 1</title>
  <g stroke="null" id="svg_6">
   <path fill="white" stroke="#000000" id="svg_13" d="m46.528248,29.640722c-0.286537,-0.724117 -0.488132,-1.179403 -0.709885,-1.525385c0.444294,-0.477213 0.830585,-1.014639 1.145939,-1.599035c0.633884,-1.174633 0.968933,-2.519054 0.968933,-3.887836c0,-1.368782 -0.335049,-2.71314 -0.968933,-3.887783c-0.621258,-1.151299 -1.51741,-2.12114 -2.59182,-2.80483c-1.255341,-0.796098 -2.659622,-1.151118 -4.553112,-1.151118l0.000103,0.002913l-2.015202,0l0,19.7391l2.101414,0l0,-4.054937c1.703037,-0.009893 3.008472,-0.312611 4.169704,-0.972494c0.116104,0.20484 0.238689,0.477486 0.3936,0.869104l1.64521,4.15835l2.347084,0l-1.933037,-4.886049zm-6.622562,-12.673599c1.462086,0.000532 2.466049,0.238014 3.355801,0.793724c1.609463,1.029552 2.570332,2.849119 2.570332,4.867563s-0.960728,3.837893 -2.570183,4.867477c-0.889797,0.555811 -1.893784,0.793262 -3.355965,0.79388l0.000015,-11.322645l0,0z"/>
   <g fill="white" stroke="null" id="svg_17">
    <polygon stroke="#000000" id="svg_14" points="35.206939697265625,23.357133150100708 35.206939697265625,14.783661127090454 35.20524597167969,14.783661127090454 35.20524597167969,3.473226547241211 33.103824615478516,3.473226547241211 33.103824615478516,23.357133150100708 "/>
    <path stroke="#000000" id="svg_15" d="m33.105507,25.461832l0,6.953913c-1.923883,-0.071606 -3.642941,-1.01886 -4.632357,-2.565458c-0.556368,-0.890858 -0.793747,-1.89612 -0.793747,-3.361078l0,-1.027376l-2.182459,0l0,0.946348c0,1.893559 0.355005,3.297762 1.151112,4.553102c0.683689,1.074423 1.65353,1.970568 2.804829,2.591841c1.107252,0.597515 2.365396,0.92939 3.652576,0.9655l0,0.004139l2.101429,0l0,-9.06093l-2.101383,0z"/>
    <path stroke="#000000" id="svg_16" d="m25.496052,11.531597l-0.000025,11.706244l0.000917,0l0,0.119293l2.182459,0l0,-8.574185l-0.000893,0l0,-3.170307c0,-1.893543 -0.35499,-3.297771 -1.151354,-4.553495c-0.683502,-1.074094 -1.653305,-1.970184 -2.804571,-2.591482c-1.174635,-0.633854 -2.519079,-0.968916 -3.887831,-0.968916s-2.713171,0.335062 -3.88779,0.968916c-1.151299,0.621275 -2.121144,1.517388 -2.80483,2.591834c-0.796106,1.255348 -1.151115,2.659624 -1.151115,4.55312l-0.000031,9.57424c-1.566033,-0.282179 -2.927465,-1.162306 -3.765478,-2.472353c-0.556455,-0.89085 -0.793886,-1.896168 -0.793886,-3.361268l0,-11.706204l-2.182458,0l0,11.625232c0,1.893582 0.355009,3.297771 1.15135,4.553494c0.683534,1.074095 1.653327,1.970184 2.804595,2.591482c1.174646,0.633863 2.519063,0.968901 3.88781,0.968901c1.368811,0 2.713177,-0.335037 3.887812,-0.968901c1.151299,-0.621243 2.121115,-1.517387 2.804829,-2.591843c0.796106,-1.255316 1.15111,-2.659552 1.15111,-4.553103l0,-9.574262c1.566027,0.282147 2.9275,1.162272 3.76549,2.472313c0.556486,0.890858 0.79389,1.896183 0.79389,3.361252zm-6.741837,3.821701c0,1.464983 -0.237373,2.470278 -0.793749,3.361103c-0.841908,1.315979 -2.212013,2.197992 -3.787069,2.476036l0.000031,-9.65884c0,-1.464983 0.23738,-2.470284 0.793764,-3.361072c0.841876,-1.315985 2.211975,-2.198015 3.787024,-2.476042l0,9.658814z"/>
   </g>
   <text font-weight="bold" stroke="null" xml:space="preserve" text-anchor="left" font-family="'Trebuchet MS', Gadget, sans-serif" font-size="24" id="svg_23" y="27.624455" x="66.314115" stroke-width="0" fill="white">UniVR</text>
  </g>
 </g>
</svg>