<?xml version="1.0"?>
<svg width="153" height="38" xmlns="http://www.w3.org/2000/svg">
 <defs>
  <radialGradient spreadMethod="pad" id="svg_16">
   <stop offset="0" stop-color="#none"/>
   <stop offset="1" stop-color="#NaNNaNNaN"/>
  </radialGradient>
 </defs>
 <g>
  <title>background</title>
  <rect fill="none" id="canvas_background" height="402" width="582" y="-1" x="-1"/>
 </g>
 <g>
  <title>Layer 1</title>
  <g id="svg_1">
   <linearGradient y2="0.503058" x2="1.05927" y1="0.503058" x1="-0.061184" id="SVGID_1_">
    <stop stop-color="#45BFBA" offset="0"/>
    <stop stop-color="#5EBF92" offset="1"/>
   </linearGradient>
   <path id="svg_2" d="m9,5c-1.7,0 -3,1.3 -3,3l0,17c0,1.6 1.3,3.4 2.9,3.799999l12.1,3.700001c1.6,0.5 4.1,0.5 5.700001,0l12.299999,-3.6c1.599998,-0.5 2.900002,-2.199999 2.900002,-3.799999l0,-17.1c0,-1.6 -1.300003,-3 -3,-3l-29.900002,0z" stroke-miterlimit="10" stroke-width="4.393" stroke="url(#SVGID_1_)" fill="none"/>
  </g>
  <polygon id="svg_3" points="22,13 22,19.9 26.4,24.3 27.8,22.8 24,19 24,13 " fill="#FFFFFF"/>
  <text style="cursor: move;" font-weight="bold" xml:space="preserve" text-anchor="left" font-family="'Trebuchet MS', Gadget, sans-serif" font-size="22" id="svg_15" y="25.624984" x="56.249988" stroke-width="4.393" fill="#FFFFFF">UniVR</text>
 </g>
</svg>