<?xml version="1.0"?>
<svg version="1.1" xmlns="http://www.w3.org/2000/svg" xmlns:xlink="http://www.w3.org/1999/xlink" width="153" height="38">
    <desc iVinci="yes" version="4.5" gridStep="20" showGrid="no" snapToGrid="no" codePlatform="0"/>
    <g id="Layer1" opacity="1">
        <g id="Shape1">
            <desc shapeID="1" type="0" basicInfo-basicType="0" basicInfo-roundedRectRadius="12" basicInfo-polygonSides="6" basicInfo-starPoints="5" bounding="rect(-77.5,-20,155,40)" text="" font-familyName="" font-pixelSize="20" font-bold="0" font-underline="0" font-alignment="1" strokeStyle="0" markerStart="0" markerEnd="0" shadowEnabled="0" shadowOffsetX="0" shadowOffsetY="2" shadowBlur="4" shadowOpacity="160" blurEnabled="0" blurRadius="4" transform="matrix(1,0,0,1,76.5,19)" pers-center="0,0" pers-size="0,0" pers-start="0,0" pers-end="0,0" locked="0" mesh="" flag=""/>
            <path id="shapePath1" d="M-1,-1 L154,-1 L154,39 L-1,39 L-1,-1 Z" style="stroke:none;fill:none;"/>
        </g>
        <g id="Shape2">
            <desc shapeID="2" type="0" basicInfo-basicType="0" basicInfo-roundedRectRadius="12" basicInfo-polygonSides="6" basicInfo-starPoints="5" bounding="rect(-6.43269,-11.9166,12.8654,23.8332)" text="" font-familyName="" font-pixelSize="20" font-bold="0" font-underline="0" font-alignment="1" strokeStyle="0" markerStart="0" markerEnd="0" shadowEnabled="0" shadowOffsetX="0" shadowOffsetY="2" shadowBlur="4" shadowOpacity="160" blurEnabled="0" blurRadius="4" transform="matrix(1,0,0,1,45.7343,25.8278)" pers-center="0,0" pers-size="0,0" pers-start="0,0" pers-end="0,0" locked="0" mesh="" flag=""/>
            <path id="shapePath2" d="M49.8334,31.8458 C49.4875,30.9716 49.2441,30.422 48.9764,30.0043 C49.5128,29.4282 49.9791,28.7794 50.3598,28.0739 C51.1251,26.6559 51.5296,25.0328 51.5296,23.3804 C51.5296,21.728 51.1251,20.105 50.3598,18.6869 C49.6098,17.2971 48.528,16.1262 47.2309,15.3009 C45.7154,14.3398 44.0201,13.9112 41.7342,13.9112 L41.7344,13.9147 L39.3016,13.9147 L39.3016,37.7444 L41.8385,37.7444 L41.8385,32.8491 C43.8944,32.8372 45.4704,32.4717 46.8722,31.6751 C47.0124,31.9224 47.1604,32.2515 47.3474,32.7243 L49.3336,37.7444 L52.167,37.7444 L49.8334,31.8458 M41.8385,16.5459 C43.6035,16.5465 44.8156,16.8332 45.8897,17.5041 C47.8327,18.747 48.9927,20.9436 48.9927,23.3803 C48.9927,25.8171 47.8329,28.0136 45.8899,29.2565 C44.8157,29.9275 43.6036,30.2142 41.8384,30.2149 L41.8385,16.5459 Z" style="stroke:#ffffff;stroke-opacity:1;stroke-width:1;stroke-linejoin:miter;stroke-miterlimit:2;stroke-linecap:butt;fill-rule:evenodd;fill:#ffffff;fill-opacity:1;"/>
        </g>
        <g id="Shape3">
            <desc shapeID="3" type="0" basicInfo-basicType="0" basicInfo-roundedRectRadius="12" basicInfo-polygonSides="6" basicInfo-starPoints="5" bounding="rect(-5.86102,-5.46938,11.7221,10.9387)" text="" font-familyName="" font-pixelSize="20" font-bold="0" font-underline="0" font-alignment="1" strokeStyle="0" markerStart="0" markerEnd="0" shadowEnabled="0" shadowOffsetX="0" shadowOffsetY="2" shadowBlur="4" shadowOpacity="160" blurEnabled="0" blurRadius="4" transform="matrix(1,0,0,1,30.3048,32.2703)" pers-center="0,0" pers-size="0,0" pers-start="0,0" pers-end="0,0" locked="0" mesh="" flag=""/>
            <path id="shapePath3" d="M33.6291,26.8009 L33.6291,35.1959 C31.3065,35.1095 29.2312,33.9659 28.0367,32.0988 C27.3651,31.0233 27.0785,29.8098 27.0785,28.0412 L27.0785,26.8009 L24.4438,26.8009 L24.4438,27.9434 C24.4438,30.2294 24.8723,31.9245 25.8334,33.44 C26.6588,34.7371 27.8296,35.819 29.2195,36.569 C30.5562,37.2903 32.0751,37.691 33.629,37.7346 L33.629,37.7396 L36.1659,37.7396 L36.1659,26.8009 L33.6291,26.8009 Z" style="stroke:#ffffff;stroke-opacity:1;stroke-width:1;stroke-linejoin:miter;stroke-miterlimit:2;stroke-linecap:butt;fill-rule:evenodd;fill:#ffffff;fill-opacity:1;"/>
        </g>
        <g id="Shape4">
            <desc shapeID="4" type="0" basicInfo-basicType="0" basicInfo-roundedRectRadius="12" basicInfo-polygonSides="6" basicInfo-starPoints="5" bounding="rect(-13.5393,-12.0043,27.0785,24.0087)" text="" font-familyName="" font-pixelSize="20" font-bold="0" font-underline="0" font-alignment="1" strokeStyle="0" markerStart="0" markerEnd="0" shadowEnabled="0" shadowOffsetX="0" shadowOffsetY="2" shadowBlur="4" shadowOpacity="160" blurEnabled="0" blurRadius="4" transform="matrix(1,0,0,1,13.5393,12.2907)" pers-center="0,0" pers-size="0,0" pers-start="0,0" pers-end="0,0" locked="0" mesh="" flag=""/>
            <path id="shapePath4" d="M24.4427,9.98391 L24.4427,24.1161 L24.4438,24.1161 L24.4438,24.2601 L27.0785,24.2601 L27.0785,13.909 L27.0774,13.909 L27.0774,10.0818 C27.0774,7.7958 26.6489,6.10057 25.6875,4.58462 C24.8623,3.28794 23.6915,2.20615 22.3017,1.4561 C20.8836,0.690891 19.2606,0.28639 17.6082,0.28639 C15.9558,0.28639 14.3328,0.690891 12.9147,1.4561 C11.5248,2.20612 10.354,3.28794 9.52864,4.58504 C8.56756,6.10054 8.13898,7.79583 8.13898,10.0817 L8.13894,21.64 C6.24838,21.2994 4.60481,20.2369 3.59314,18.6553 C2.92137,17.5799 2.63473,16.3662 2.63473,14.5975 L2.63473,0.46541 L-1.90735e-06,0.46541 L-1.90735e-06,14.4998 C-1.90735e-06,16.7858 0.428579,18.4809 1.38994,19.9969 C2.21513,21.2936 3.38589,22.3754 4.77574,23.1254 C6.19381,23.8906 7.81683,24.2951 9.46923,24.2951 C11.1217,24.2951 12.7447,23.8906 14.1627,23.1254 C15.5526,22.3754 16.7234,21.2936 17.5488,19.9965 C18.5099,18.481 18.9385,16.7858 18.9385,14.4998 L18.9385,2.94144 C20.829,3.28206 22.4726,4.34457 23.4843,5.9261 C24.1561,7.00157 24.4427,8.21523 24.4427,9.98391 M16.3037,14.5976 C16.3037,16.3662 16.0172,17.5798 15.3455,18.6552 C14.3291,20.2439 12.6751,21.3087 10.7736,21.6444 L10.7737,9.98391 C10.7737,8.21533 11.0602,7.0017 11.7319,5.92631 C12.7483,4.33762 14.4023,3.2728 16.3037,2.93716 L16.3037,14.5976 Z" style="stroke:#ffffff;stroke-opacity:1;stroke-width:1;stroke-linejoin:miter;stroke-miterlimit:2;stroke-linecap:butt;fill-rule:evenodd;fill:#ffffff;fill-opacity:1;"/>
        </g>
    </g>
</svg>
