<?xml version="1.0" encoding="utf-8"?>
<!-- Generator: Adobe Illustrator 18.1.0, SVG Export Plug-In . SVG Version: 6.00 Build 0)  -->
<svg version="1.1" id="Layer_1" xmlns="http://www.w3.org/2000/svg" xmlns:xlink="http://www.w3.org/1999/xlink" x="0px" y="0px"
	 viewBox="0 0 153 38" enable-background="new 0 0 153 38" xml:space="preserve">
<g>
	<linearGradient id="SVGID_1_" gradientUnits="userSpaceOnUse" x1="3.8035" y1="18.9466" x2="44.0278" y2="18.9466">
		<stop  offset="0" style="stop-color:#45BFBA"/>
		<stop  offset="1" style="stop-color:#5EBF92"/>
	</linearGradient>
	<path fill="none" stroke="url(#SVGID_1_)" stroke-width="4.393" stroke-miterlimit="10" d="M9,5C7.3,5,6,6.3,6,8V25
		c0,1.6,1.3,3.4,2.9,3.8L21,32.5c1.6,0.5,4.1,0.5,5.7,0L39,28.9c1.6-0.5,2.9-2.2,2.9-3.8V8c0-1.6-1.3-3-3-3H9z"/>
</g>
<polygon fill="#FFFFFF" points="22,13 22,19.9 26.4,24.3 27.8,22.8 24,19 24,13 "/>
<g>
	<path fill="#FFFFFF" d="M64.4,12.5v12.9h-3.2V12.5H56V9.6h13.6v2.9H64.4z"/>
	<path fill="#FFFFFF" d="M73.7,20.9c0.1,1.3,0.9,2.2,2.3,2.2c1.1,0,1.8-0.4,2-1.2L81,22c-0.4,2-2.4,3.5-5,3.5
		c-3.3,0-5.6-2.2-5.6-5.6c0-3.5,2.3-5.7,5.5-5.7c3.1,0,5.1,2,5.1,5.4v1.2H73.7z M73.7,18.8H78c-0.1-1.3-0.7-2.2-2.1-2.2
		C74.6,16.6,73.8,17.4,73.7,18.8z"/>
	<path fill="#FFFFFF" d="M86.1,20.9c0.1,1.3,0.9,2.2,2.3,2.2c1.1,0,1.8-0.4,2-1.2l3.1,0.2c-0.4,2-2.4,3.5-5,3.5
		c-3.3,0-5.6-2.2-5.6-5.6c0-3.5,2.3-5.7,5.5-5.7c3.1,0,5.1,2,5.1,5.4v1.2H86.1z M86.1,18.8h4.3c-0.1-1.3-0.7-2.2-2.1-2.2
		C87.1,16.6,86.2,17.4,86.1,18.8z"/>
	<path fill="#FFFFFF" d="M102.4,14.5h3.7l-4.1,4.6l4.3,6.2h-3.7l-2.8-3.9l-0.9,1v2.9h-3V9h3v9.3L102.4,14.5z"/>
	<path fill="#FFFFFF" d="M115.4,12.5v12.9h-3.2V12.5h-5.2V9.6h13.6v2.9H115.4z"/>
	<path fill="#FFFFFF" d="M129.8,15.6v-1.1h2.9v10.9h-2.9v-1.1c-0.6,0.7-1.7,1.3-3.2,1.3c-3,0-5.2-2.2-5.2-5.6c0-3.4,2.1-5.7,5.2-5.7
		C128.1,14.2,129.2,14.8,129.8,15.6z M124.5,19.9c0,1.9,1.1,3,2.6,3c1.5,0,2.5-1,2.5-2.8v-0.5c0-1.7-1-2.8-2.5-2.8
		C125.6,16.9,124.5,18,124.5,19.9z"/>
	<path fill="#FFFFFF" d="M142.2,14.5h3.7l-4.1,4.6l4.4,6.2h-3.7l-2.8-3.9l-1,1v2.9h-3V9h3v9.3L142.2,14.5z"/>
</g>
</svg>
